<svg width="31" height="30" viewBox="0 0 31 30" fill="none" xmlns="http://www.w3.org/2000/svg">
<path d="M29.984 8.41192L25.8276 0.448636C25.6855 0.17119 25.3954 0 25.0875 0H4.99835C4.68455 0 4.40036 0.17119 4.25826 0.448636L0.0959545 8.41192C-0.194163 8.96681 0.208449 9.62796 0.836051 9.62796H2.14454V29.1554C2.14454 29.6159 2.51755 29.9877 2.97937 29.9877H27.0947C27.5565 29.9877 27.9295 29.6159 27.9295 29.1554V9.62796H29.238C29.8715 9.62796 30.2741 8.96681 29.984 8.41192ZM17.5978 28.3231H12.4822V23.1933L15.04 20.6431L17.5978 23.1933V28.3231ZM26.2599 28.3231H19.2674V22.845C19.2674 22.6266 19.1786 22.4141 19.0247 22.2547L15.6321 18.8722C15.3064 18.5475 14.7795 18.5475 14.4479 18.8722L11.0553 22.2547C10.9014 22.4082 10.8126 22.6207 10.8126 22.845V28.3231H3.82012V9.62796H9.82379C10.0429 9.62796 10.256 9.53941 10.4159 9.38593L15.04 4.7697L19.67 9.38593C19.824 9.53941 20.0371 9.62796 20.2621 9.62796H26.2658V28.3231H26.2599ZM20.6055 7.96328L15.6321 3.00468C15.3064 2.68001 14.7795 2.68001 14.4479 3.00468L9.47446 7.96328H2.21559L2.97345 6.51112H5.43057C5.89239 6.51112 6.2654 6.13922 6.2654 5.67878C6.2654 5.21834 5.89239 4.84644 5.43057 4.84644H3.8438L4.19313 4.17349H7.90546C8.36728 4.17349 8.74028 3.8016 8.74028 3.34115C8.74028 2.88071 8.36728 2.50882 7.90546 2.50882H5.06348L5.50162 1.67058H24.5784L27.8644 7.96328H20.6055Z" fill="#D3DBE2"/>
<path d="M8.11258 11.5936H6.48436C6.02254 11.5936 5.64954 11.9655 5.64954 12.426C5.64954 12.8864 6.02254 13.2583 6.48436 13.2583H8.11258C8.5744 13.2583 8.94741 12.8864 8.94741 12.426C8.94741 11.9655 8.5744 11.5936 8.11258 11.5936Z" fill="#D3DBE2"/>
<path d="M13.2757 11.5936H11.6475C11.1856 11.5936 10.8126 11.9655 10.8126 12.426C10.8126 12.8864 11.1856 13.2583 11.6475 13.2583H13.2757C13.7375 13.2583 14.1105 12.8864 14.1105 12.426C14.1105 11.9655 13.7316 11.5936 13.2757 11.5936Z" fill="#D3DBE2"/>
<path d="M18.4326 11.5936H16.8044C16.3426 11.5936 15.9696 11.9655 15.9696 12.426C15.9696 12.8864 16.3426 13.2583 16.8044 13.2583H18.4326C18.8945 13.2583 19.2675 12.8864 19.2675 12.426C19.2675 11.9655 18.8945 11.5936 18.4326 11.5936Z" fill="#D3DBE2"/>
<path d="M21.9673 13.2583H23.5955C24.0573 13.2583 24.4303 12.8864 24.4303 12.426C24.4303 11.9655 24.0573 11.5936 23.5955 11.5936H21.9673C21.5055 11.5936 21.1324 11.9655 21.1324 12.426C21.1324 12.8864 21.5055 13.2583 21.9673 13.2583Z" fill="#D3DBE2"/>
<path d="M8.11258 15.9797H6.48436C6.02254 15.9797 5.64954 16.3516 5.64954 16.812C5.64954 17.2725 6.02254 17.6443 6.48436 17.6443H8.11258C8.5744 17.6443 8.94741 17.2725 8.94741 16.812C8.94741 16.3516 8.5744 15.9797 8.11258 15.9797Z" fill="#D3DBE2"/>
<path d="M13.2757 15.9797H11.6475C11.1856 15.9797 10.8126 16.3516 10.8126 16.812C10.8126 17.2725 11.1856 17.6443 11.6475 17.6443H13.2757C13.7375 17.6443 14.1105 17.2725 14.1105 16.812C14.1105 16.3516 13.7316 15.9797 13.2757 15.9797Z" fill="#D3DBE2"/>
<path d="M18.4326 15.9797H16.8044C16.3426 15.9797 15.9696 16.3516 15.9696 16.812C15.9696 17.2725 16.3426 17.6443 16.8044 17.6443H18.4326C18.8945 17.6443 19.2675 17.2725 19.2675 16.812C19.2675 16.3516 18.8945 15.9797 18.4326 15.9797Z" fill="#D3DBE2"/>
<path d="M21.9673 17.6443H23.5955C24.0573 17.6443 24.4303 17.2725 24.4303 16.812C24.4303 16.3516 24.0573 15.9797 23.5955 15.9797H21.9673C21.5055 15.9797 21.1324 16.3516 21.1324 16.812C21.1324 17.2725 21.5055 17.6443 21.9673 17.6443Z" fill="#D3DBE2"/>
<path d="M8.11258 20.3657H6.48436C6.02254 20.3657 5.64954 20.7376 5.64954 21.198C5.64954 21.6584 6.02254 22.0303 6.48436 22.0303H8.11258C8.5744 22.0303 8.94741 21.6584 8.94741 21.198C8.94741 20.7376 8.5744 20.3657 8.11258 20.3657Z" fill="#D3DBE2"/>
<path d="M21.9673 22.0303H23.5955C24.0573 22.0303 24.4303 21.6584 24.4303 21.198C24.4303 20.7376 24.0573 20.3657 23.5955 20.3657H21.9673C21.5055 20.3657 21.1324 20.7376 21.1324 21.198C21.1324 21.6584 21.5055 22.0303 21.9673 22.0303Z" fill="#D3DBE2"/>
<path d="M8.11258 24.7458H6.48436C6.02254 24.7458 5.64954 25.1177 5.64954 25.5781C5.64954 26.0386 6.02254 26.4105 6.48436 26.4105H8.11258C8.5744 26.4105 8.94741 26.0386 8.94741 25.5781C8.94741 25.1236 8.5744 24.7458 8.11258 24.7458Z" fill="#D3DBE2"/>
<path d="M21.9673 26.4163H23.5955C24.0573 26.4163 24.4303 26.0444 24.4303 25.584C24.4303 25.1235 24.0573 24.7516 23.5955 24.7516H21.9673C21.5055 24.7516 21.1324 25.1235 21.1324 25.584C21.1324 26.0444 21.5055 26.4163 21.9673 26.4163Z" fill="#D3DBE2"/>
</svg>
