<svg width="25" height="27" viewBox="0 0 25 27" fill="none" xmlns="http://www.w3.org/2000/svg">
<path d="M12.4928 10.7C11.5464 10.7 10.7715 11.4681 10.7715 12.3968C10.7715 13.3432 11.5396 14.118 12.4683 14.118C13.4147 14.118 14.1896 13.35 14.1896 12.4213C14.1896 11.4504 13.4461 10.7 12.4928 10.7Z" fill="#E5EBF1" stroke="#E5EBF1" stroke-width="0.6"/>
<path d="M7.54274 10.7C6.59975 10.7 5.82146 11.4402 5.82146 12.3968C5.82146 13.3398 6.56162 14.118 7.51823 14.118C8.46121 14.118 9.23951 13.3779 9.23951 12.4213C9.23951 11.4783 8.49935 10.7 7.54274 10.7Z" fill="#E5EBF1" stroke="#E5EBF1" stroke-width="0.6"/>
<path d="M17.4672 10.7C16.5242 10.7 15.7459 11.4402 15.7459 12.3968C15.7459 13.3398 16.4861 14.118 17.4427 14.118C18.3857 14.118 19.1639 13.3779 19.1639 12.4213V12.3968C19.1639 11.4749 18.4204 10.7 17.4672 10.7Z" fill="#E5EBF1" stroke="#E5EBF1" stroke-width="0.6"/>
<path d="M12.4927 0.749998L12.4918 0.750002C5.98236 0.775038 0.75 6.05779 0.75 12.5417C0.75 16.1444 2.42431 19.5456 5.24724 21.7734C6.63916 23.0888 8.25625 24.1336 10.0496 24.8066C11.5979 25.4305 13.2704 25.7548 14.9432 25.7548C16.0642 25.7548 17.1859 25.6302 18.259 25.3807L18.261 25.3802C18.6837 25.2782 19.0374 25.0032 19.2476 24.6661C19.4573 24.3299 19.539 23.904 19.3615 23.5152C19.2739 23.3177 19.217 23.1047 19.1625 22.8718C19.1518 22.8257 19.141 22.7785 19.1301 22.7304C19.0985 22.5915 19.0653 22.4456 19.0253 22.3004C24.3831 18.7165 25.8605 11.4996 22.3328 6.08342C20.1789 2.75261 16.4729 0.75 12.4927 0.749998ZM17.8263 20.7095L17.8262 20.7093L17.8186 20.7144L17.304 21.0574L17.1993 21.1273C16.8864 21.3109 16.7167 21.6797 16.835 22.0703L17.2528 23.5875C16.491 23.7077 15.7158 23.7845 14.9432 23.7845C13.5283 23.7845 12.1141 23.5206 10.7967 22.9937L10.7949 22.993C9.25665 22.3921 7.83974 21.5034 6.63952 20.3517L6.59233 20.3045L6.57483 20.287L6.55423 20.2733L6.48827 20.2293C2.21762 16.9068 1.4552 10.7462 4.77515 6.47087C8.09655 2.19367 14.2609 1.42955 18.5134 4.7742L18.5146 4.77515C22.7918 8.09655 23.5559 14.2609 20.2113 18.5134L20.2112 18.5133L20.2078 18.5179C19.5635 19.377 18.7532 20.1391 17.8263 20.7095Z" fill="#E5EBF1" stroke="#E5EBF1" stroke-width="0.5"/>
</svg>
