<svg width="59" height="38" viewBox="0 0 59 38" fill="none" xmlns="http://www.w3.org/2000/svg">
<path d="M20.5371 0H36.4629C39.5161 0 42 2.48387 42 5.53711V14.0891C42 16.5254 40.4005 18.6474 38.0826 19.3265L35.4084 22.0009C35.2599 22.1493 35.0588 22.2327 34.8489 22.2327C34.6392 22.2327 34.438 22.1493 34.2897 22.0009L31.8365 19.5476H20.5371C17.4839 19.5476 15 17.0637 15 14.0105V5.53711C15 2.48387 17.4839 0 20.5371 0ZM16.582 14.0105C16.582 16.1913 18.3563 17.9655 20.5371 17.9655H32.164C32.3737 17.9655 32.575 18.049 32.7233 18.1973L34.8489 20.3229L37.1128 18.0591C37.2144 17.9575 37.3417 17.8854 37.4811 17.8508C39.2102 17.4205 40.418 15.8737 40.418 14.0891V5.53711C40.418 3.35625 38.6437 1.58203 36.4629 1.58203H20.5371C18.3563 1.58203 16.582 3.35625 16.582 5.53711V14.0105Z" fill="#D3DBE2"/>
<path d="M23.4775 7.58472H33.5226C33.9595 7.58472 34.3136 7.93903 34.3136 8.37573C34.3136 8.81264 33.9595 9.16675 33.5226 9.16675H23.4775C23.0406 9.16675 22.6865 8.81264 22.6865 8.37573C22.6865 7.93903 23.0406 7.58472 23.4775 7.58472Z" fill="#D3DBE2"/>
<path d="M23.4775 10.3809H33.5226C33.9595 10.3809 34.3136 10.735 34.3136 11.1719C34.3136 11.6088 33.9595 11.9629 33.5226 11.9629H23.4775C23.0406 11.9629 22.6865 11.6088 22.6865 11.1719C22.6865 10.735 23.0406 10.3809 23.4775 10.3809Z" fill="#D3DBE2"/>
<path d="M1.86 29.792C1.844 30.152 1.836 30.488 1.836 30.8C1.836 31.112 1.844 31.448 1.86 31.808C1.884 32.472 2.084 33.012 2.46 33.428C2.844 33.836 3.392 34.04 4.104 34.04C4.488 34.04 4.812 33.992 5.076 33.896C5.34 33.8 5.556 33.676 5.724 33.524C5.9 33.372 6.032 33.2 6.12 33.008C6.216 32.808 6.288 32.608 6.336 32.408C6.352 32.32 6.392 32.256 6.456 32.216C6.52 32.168 6.584 32.144 6.648 32.144H7.2C7.272 32.144 7.332 32.172 7.38 32.228C7.436 32.276 7.464 32.336 7.464 32.408C7.456 32.672 7.388 32.96 7.26 33.272C7.132 33.584 6.932 33.88 6.66 34.16C6.396 34.432 6.052 34.66 5.628 34.844C5.212 35.028 4.704 35.12 4.104 35.12C3.584 35.12 3.12 35.04 2.712 34.88C2.304 34.712 1.952 34.484 1.656 34.196C1.368 33.908 1.144 33.568 0.984 33.176C0.824 32.776 0.736 32.34 0.72 31.868C0.696 31.156 0.696 30.444 0.72 29.732C0.736 29.268 0.824 28.836 0.984 28.436C1.144 28.036 1.368 27.692 1.656 27.404C1.952 27.116 2.304 26.892 2.712 26.732C3.12 26.564 3.584 26.48 4.104 26.48C4.704 26.48 5.212 26.572 5.628 26.756C6.052 26.94 6.396 27.172 6.66 27.452C6.932 27.724 7.132 28.016 7.26 28.328C7.388 28.64 7.456 28.928 7.464 29.192C7.464 29.264 7.436 29.328 7.38 29.384C7.332 29.432 7.272 29.456 7.2 29.456H6.648C6.584 29.456 6.52 29.436 6.456 29.396C6.392 29.348 6.352 29.28 6.336 29.192C6.288 28.992 6.216 28.796 6.12 28.604C6.032 28.404 5.9 28.228 5.724 28.076C5.556 27.924 5.34 27.8 5.076 27.704C4.812 27.608 4.488 27.56 4.104 27.56C3.392 27.56 2.844 27.768 2.46 28.184C2.084 28.592 1.884 29.128 1.86 29.792ZM11.1599 28.64C11.5919 28.64 11.9759 28.708 12.3119 28.844C12.6479 28.972 12.9359 29.152 13.1759 29.384C13.4159 29.616 13.6039 29.9 13.7399 30.236C13.8839 30.564 13.9719 30.924 14.0039 31.316C14.0119 31.388 14.0159 31.476 14.0159 31.58C14.0159 31.676 14.0159 31.78 14.0159 31.892C14.0159 31.996 14.0159 32.1 14.0159 32.204C14.0159 32.3 14.0119 32.38 14.0039 32.444C13.9639 32.844 13.8759 33.208 13.7399 33.536C13.6039 33.864 13.4159 34.144 13.1759 34.376C12.9359 34.608 12.6479 34.792 12.3119 34.928C11.9759 35.056 11.5919 35.12 11.1599 35.12C10.7279 35.12 10.3439 35.056 10.0079 34.928C9.67191 34.792 9.38391 34.608 9.14391 34.376C8.90391 34.144 8.71191 33.864 8.56791 33.536C8.43191 33.208 8.34791 32.844 8.31591 32.444C8.30791 32.38 8.29991 32.3 8.29191 32.204C8.29191 32.1 8.29191 31.996 8.29191 31.892C8.29191 31.78 8.29191 31.676 8.29191 31.58C8.29991 31.476 8.30791 31.388 8.31591 31.316C8.34791 30.924 8.43191 30.564 8.56791 30.236C8.71191 29.9 8.90391 29.616 9.14391 29.384C9.38391 29.152 9.67191 28.972 10.0079 28.844C10.3439 28.708 10.7279 28.64 11.1599 28.64ZM12.9119 32.384C12.9279 32.248 12.9359 32.084 12.9359 31.892C12.9359 31.692 12.9279 31.52 12.9119 31.376C12.8879 31.136 12.8359 30.912 12.7559 30.704C12.6759 30.496 12.5639 30.316 12.4199 30.164C12.2759 30.012 12.0999 29.892 11.8919 29.804C11.6839 29.716 11.4399 29.672 11.1599 29.672C10.8799 29.672 10.6359 29.716 10.4279 29.804C10.2199 29.892 10.0439 30.012 9.89991 30.164C9.75591 30.316 9.64391 30.496 9.56391 30.704C9.48391 30.912 9.43191 31.136 9.40791 31.376C9.39191 31.52 9.38391 31.692 9.38391 31.892C9.38391 32.084 9.39191 32.248 9.40791 32.384C9.43191 32.624 9.48391 32.848 9.56391 33.056C9.64391 33.264 9.75591 33.444 9.89991 33.596C10.0439 33.748 10.2199 33.868 10.4279 33.956C10.6359 34.044 10.8799 34.088 11.1599 34.088C11.4399 34.088 11.6839 34.044 11.8919 33.956C12.0999 33.868 12.2759 33.748 12.4199 33.596C12.5639 33.444 12.6759 33.264 12.7559 33.056C12.8359 32.848 12.8879 32.624 12.9119 32.384ZM16.3217 29.456C16.3937 29.36 16.4777 29.264 16.5737 29.168C16.6697 29.064 16.7777 28.976 16.8977 28.904C17.0257 28.824 17.1737 28.76 17.3417 28.712C17.5097 28.664 17.7057 28.64 17.9297 28.64C18.4177 28.64 18.8217 28.732 19.1417 28.916C19.4617 29.092 19.7137 29.348 19.8977 29.684C20.0017 29.54 20.1097 29.404 20.2217 29.276C20.3417 29.148 20.4777 29.036 20.6297 28.94C20.7897 28.844 20.9657 28.772 21.1577 28.724C21.3577 28.668 21.5897 28.64 21.8537 28.64C22.6617 28.64 23.2497 28.884 23.6177 29.372C23.9857 29.852 24.1697 30.512 24.1697 31.352V34.676C24.1697 34.764 24.1377 34.84 24.0737 34.904C24.0097 34.968 23.9337 35 23.8457 35H23.4017C23.3137 35 23.2377 34.968 23.1737 34.904C23.1097 34.84 23.0777 34.764 23.0777 34.676V31.472C23.0777 30.856 22.9577 30.404 22.7177 30.116C22.4777 29.82 22.1257 29.672 21.6617 29.672C21.2377 29.672 20.8937 29.812 20.6297 30.092C20.3737 30.372 20.2457 30.804 20.2457 31.388V34.676C20.2457 34.764 20.2137 34.84 20.1497 34.904C20.0857 34.968 20.0097 35 19.9217 35H19.4777C19.3897 35 19.3137 34.968 19.2497 34.904C19.1857 34.84 19.1537 34.764 19.1537 34.676V31.472C19.1537 30.856 19.0337 30.404 18.7937 30.116C18.5537 29.82 18.2017 29.672 17.7377 29.672C17.3137 29.672 16.9697 29.812 16.7057 30.092C16.4497 30.372 16.3217 30.804 16.3217 31.388V34.676C16.3217 34.764 16.2897 34.84 16.2257 34.904C16.1617 34.968 16.0857 35 15.9977 35H15.5537C15.4657 35 15.3897 34.968 15.3257 34.904C15.2617 34.84 15.2297 34.764 15.2297 34.676V29.084C15.2297 28.996 15.2617 28.92 15.3257 28.856C15.3897 28.792 15.4657 28.76 15.5537 28.76H15.9977C16.0857 28.76 16.1617 28.792 16.2257 28.856C16.2897 28.92 16.3217 28.996 16.3217 29.084V29.456ZM26.6975 29.456C26.7695 29.36 26.8535 29.264 26.9495 29.168C27.0455 29.064 27.1535 28.976 27.2735 28.904C27.4015 28.824 27.5495 28.76 27.7175 28.712C27.8855 28.664 28.0815 28.64 28.3055 28.64C28.7935 28.64 29.1975 28.732 29.5175 28.916C29.8375 29.092 30.0895 29.348 30.2735 29.684C30.3775 29.54 30.4855 29.404 30.5975 29.276C30.7175 29.148 30.8535 29.036 31.0055 28.94C31.1655 28.844 31.3415 28.772 31.5335 28.724C31.7335 28.668 31.9655 28.64 32.2295 28.64C33.0375 28.64 33.6255 28.884 33.9935 29.372C34.3615 29.852 34.5455 30.512 34.5455 31.352V34.676C34.5455 34.764 34.5135 34.84 34.4495 34.904C34.3855 34.968 34.3095 35 34.2215 35H33.7775C33.6895 35 33.6135 34.968 33.5495 34.904C33.4855 34.84 33.4535 34.764 33.4535 34.676V31.472C33.4535 30.856 33.3335 30.404 33.0935 30.116C32.8535 29.82 32.5015 29.672 32.0375 29.672C31.6135 29.672 31.2695 29.812 31.0055 30.092C30.7495 30.372 30.6215 30.804 30.6215 31.388V34.676C30.6215 34.764 30.5895 34.84 30.5255 34.904C30.4615 34.968 30.3855 35 30.2975 35H29.8535C29.7655 35 29.6895 34.968 29.6255 34.904C29.5615 34.84 29.5295 34.764 29.5295 34.676V31.472C29.5295 30.856 29.4095 30.404 29.1695 30.116C28.9295 29.82 28.5775 29.672 28.1135 29.672C27.6895 29.672 27.3455 29.812 27.0815 30.092C26.8255 30.372 26.6975 30.804 26.6975 31.388V34.676C26.6975 34.764 26.6655 34.84 26.6015 34.904C26.5375 34.968 26.4615 35 26.3735 35H25.9295C25.8415 35 25.7655 34.968 25.7015 34.904C25.6375 34.84 25.6055 34.764 25.6055 34.676V29.084C25.6055 28.996 25.6375 28.92 25.7015 28.856C25.7655 28.792 25.8415 28.76 25.9295 28.76H26.3735C26.4615 28.76 26.5375 28.792 26.6015 28.856C26.6655 28.92 26.6975 28.996 26.6975 29.084V29.456ZM35.6932 31.28C35.7252 30.912 35.8132 30.568 35.9572 30.248C36.1012 29.928 36.2892 29.648 36.5212 29.408C36.7532 29.168 37.0292 28.98 37.3492 28.844C37.6772 28.708 38.0412 28.64 38.4412 28.64C38.8732 28.64 39.2572 28.712 39.5932 28.856C39.9372 28.992 40.2292 29.192 40.4692 29.456C40.7092 29.72 40.8932 30.04 41.0212 30.416C41.1492 30.792 41.2132 31.212 41.2132 31.676V32C41.2132 32.088 41.1812 32.164 41.1172 32.228C41.0532 32.292 40.9772 32.324 40.8892 32.324H36.7612V32.396C36.7772 32.94 36.9412 33.36 37.2532 33.656C37.5732 33.944 37.9692 34.088 38.4412 34.088C38.8812 34.088 39.2092 34.028 39.4252 33.908C39.6492 33.78 39.8292 33.64 39.9652 33.488C40.0292 33.424 40.0852 33.38 40.1332 33.356C40.1812 33.332 40.2532 33.32 40.3492 33.32H40.7092C40.7972 33.32 40.8772 33.352 40.9492 33.416C41.0212 33.48 41.0492 33.556 41.0332 33.644C41.0092 33.788 40.9412 33.948 40.8292 34.124C40.7172 34.292 40.5532 34.452 40.3372 34.604C40.1292 34.748 39.8652 34.872 39.5452 34.976C39.2332 35.072 38.8652 35.12 38.4412 35.12C38.0412 35.12 37.6812 35.052 37.3612 34.916C37.0412 34.772 36.7612 34.58 36.5212 34.34C36.2892 34.092 36.1012 33.804 35.9572 33.476C35.8132 33.14 35.7252 32.776 35.6932 32.384C35.6532 32.016 35.6532 31.648 35.6932 31.28ZM36.7612 31.316H40.1332V31.28C40.1332 30.792 39.9772 30.404 39.6652 30.116C39.3612 29.82 38.9532 29.672 38.4412 29.672C38.2092 29.672 37.9932 29.712 37.7932 29.792C37.5932 29.864 37.4172 29.972 37.2652 30.116C37.1132 30.252 36.9932 30.42 36.9052 30.62C36.8172 30.82 36.7692 31.04 36.7612 31.28V31.316ZM47.9049 34.676C47.9049 34.764 47.8729 34.84 47.8089 34.904C47.7449 34.968 47.6689 35 47.5809 35H47.1369C47.0489 35 46.9729 34.968 46.9089 34.904C46.8449 34.84 46.8129 34.764 46.8129 34.676V31.508C46.8129 30.892 46.6649 30.432 46.3689 30.128C46.0729 29.824 45.6609 29.672 45.1329 29.672C44.6289 29.672 44.2209 29.824 43.9089 30.128C43.6049 30.432 43.4529 30.892 43.4529 31.508V34.676C43.4529 34.764 43.4209 34.84 43.3569 34.904C43.2929 34.968 43.2169 35 43.1289 35H42.6849C42.5969 35 42.5209 34.968 42.4569 34.904C42.3929 34.84 42.3609 34.764 42.3609 34.676V29.084C42.3609 28.996 42.3929 28.92 42.4569 28.856C42.5209 28.792 42.5969 28.76 42.6849 28.76H43.1289C43.2169 28.76 43.2929 28.792 43.3569 28.856C43.4209 28.92 43.4529 28.996 43.4529 29.084V29.456C43.6049 29.256 43.8289 29.072 44.1249 28.904C44.4289 28.728 44.8249 28.64 45.3129 28.64C45.6889 28.64 46.0369 28.704 46.3569 28.832C46.6769 28.952 46.9489 29.128 47.1729 29.36C47.4049 29.584 47.5849 29.864 47.7129 30.2C47.8409 30.536 47.9049 30.912 47.9049 31.328V34.676ZM50.8883 32.9C50.8883 33.052 50.9003 33.196 50.9243 33.332C50.9563 33.46 51.0083 33.572 51.0803 33.668C51.1523 33.764 51.2523 33.84 51.3803 33.896C51.5163 33.944 51.6883 33.968 51.8963 33.968H52.5323C52.6203 33.968 52.6963 34 52.7603 34.064C52.8243 34.128 52.8563 34.204 52.8563 34.292V34.676C52.8563 34.764 52.8243 34.84 52.7603 34.904C52.6963 34.968 52.6203 35 52.5323 35H51.7763C51.0803 35 50.5763 34.82 50.2643 34.46C49.9523 34.1 49.7963 33.58 49.7963 32.9V29.792H48.9083C48.8203 29.792 48.7443 29.76 48.6803 29.696C48.6163 29.632 48.5843 29.556 48.5843 29.468V29.084C48.5843 28.996 48.6163 28.92 48.6803 28.856C48.7443 28.792 48.8203 28.76 48.9083 28.76H49.7963V26.804C49.7963 26.716 49.8283 26.64 49.8923 26.576C49.9563 26.512 50.0323 26.48 50.1203 26.48H50.5643C50.6523 26.48 50.7283 26.512 50.7923 26.576C50.8563 26.64 50.8883 26.716 50.8883 26.804V28.76H52.4123C52.5003 28.76 52.5763 28.792 52.6403 28.856C52.7043 28.92 52.7363 28.996 52.7363 29.084V29.468C52.7363 29.556 52.7043 29.632 52.6403 29.696C52.5763 29.76 52.5003 29.792 52.4123 29.792H50.8883V32.9ZM57.3129 33.272C57.3129 33.12 57.2689 32.996 57.1809 32.9C57.1009 32.796 56.9769 32.708 56.8089 32.636C56.6409 32.564 56.4249 32.496 56.1609 32.432C55.9049 32.368 55.6049 32.3 55.2609 32.228C54.6129 32.092 54.1569 31.868 53.8929 31.556C53.6369 31.236 53.5089 30.864 53.5089 30.44C53.5089 30.2 53.5569 29.972 53.6529 29.756C53.7489 29.54 53.8929 29.348 54.0849 29.18C54.2769 29.012 54.5169 28.88 54.8049 28.784C55.1009 28.688 55.4449 28.64 55.8369 28.64C56.2289 28.64 56.5689 28.684 56.8569 28.772C57.1529 28.86 57.4009 28.972 57.6009 29.108C57.8009 29.244 57.9529 29.392 58.0569 29.552C58.1609 29.704 58.2169 29.852 58.2249 29.996C58.2329 30.084 58.2009 30.16 58.1289 30.224C58.0649 30.288 57.9889 30.32 57.9009 30.32H57.5049C57.4569 30.32 57.3969 30.312 57.3249 30.296C57.2609 30.272 57.2009 30.224 57.1449 30.152C57.0409 30.016 56.8849 29.904 56.6769 29.816C56.4769 29.72 56.1969 29.672 55.8369 29.672C55.4689 29.672 55.1689 29.74 54.9369 29.876C54.7129 30.012 54.6009 30.2 54.6009 30.44C54.6009 30.592 54.6329 30.716 54.6969 30.812C54.7609 30.9 54.8649 30.98 55.0089 31.052C55.1529 31.116 55.3409 31.176 55.5729 31.232C55.8129 31.288 56.1089 31.356 56.4609 31.436C56.8289 31.516 57.1369 31.62 57.3849 31.748C57.6329 31.868 57.8329 32.008 57.9849 32.168C58.1369 32.32 58.2449 32.492 58.3089 32.684C58.3729 32.868 58.4049 33.064 58.4049 33.272C58.4049 33.512 58.3449 33.744 58.2249 33.968C58.1129 34.192 57.9489 34.388 57.7329 34.556C57.5169 34.724 57.2529 34.86 56.9409 34.964C56.6369 35.068 56.2889 35.12 55.8969 35.12C55.5049 35.12 55.1569 35.072 54.8529 34.976C54.5489 34.88 54.2889 34.764 54.0729 34.628C53.8569 34.484 53.6889 34.332 53.5689 34.172C53.4569 34.004 53.3969 33.848 53.3889 33.704C53.3809 33.616 53.4089 33.54 53.4729 33.476C53.5369 33.412 53.6169 33.38 53.7129 33.38H54.1449C54.1929 33.38 54.2489 33.388 54.3129 33.404C54.3769 33.412 54.4369 33.456 54.4929 33.536C54.6209 33.712 54.7969 33.848 55.0209 33.944C55.2449 34.04 55.5369 34.088 55.8969 34.088C56.0729 34.088 56.2449 34.068 56.4129 34.028C56.5889 33.988 56.7409 33.932 56.8689 33.86C57.0049 33.788 57.1129 33.704 57.1929 33.608C57.2729 33.504 57.3129 33.392 57.3129 33.272Z" fill="#D3DBE2"/>
</svg>
