<svg width="31" height="32" viewBox="0 0 31 32" fill="none" xmlns="http://www.w3.org/2000/svg">
<path d="M29.2246 16.4145C29.0958 16.1511 29.0958 15.8489 29.2246 15.5856L30.4181 13.144C31.0826 11.7846 30.5561 10.1643 29.2195 9.45513L26.8189 8.1814C26.5599 8.04402 26.3823 7.79953 26.3316 7.51084L25.8621 4.83406C25.6007 3.3437 24.2221 2.34222 22.7242 2.55415L20.0334 2.93477C19.743 2.97577 19.4558 2.8824 19.2451 2.67859L17.2919 0.789108C16.2044 -0.263005 14.5006 -0.263067 13.4132 0.789108L11.4599 2.67877C11.2492 2.88265 10.962 2.97583 10.6716 2.93496L7.98084 2.55434C6.48243 2.34228 5.10432 3.34389 4.84288 4.83425L4.37339 7.51091C4.3227 7.79965 4.14514 8.04409 3.88621 8.18152L1.48561 9.45526C0.148999 10.1644 -0.377495 11.7848 0.286997 13.1442L1.48042 15.5857C1.60917 15.8491 1.60917 16.1512 1.48042 16.4146L0.286934 18.8561C-0.377558 20.2155 0.148936 21.8358 1.48555 22.545L3.88614 23.8187C4.14514 23.9561 4.3227 24.2006 4.37339 24.4893L4.84288 27.1661C5.08088 28.5228 6.24424 29.4743 7.58129 29.4741C7.71297 29.4741 7.8466 29.4649 7.98091 29.4459L10.6717 29.0653C10.9619 29.0241 11.2492 29.1177 11.46 29.3215L13.4132 31.2109C13.957 31.7371 14.6546 32.0001 15.3525 32C16.0502 31.9999 16.7482 31.7369 17.2919 31.2109L19.2451 29.3215C19.4558 29.1177 19.7431 29.0245 20.0334 29.0653L22.7242 29.4459C24.2228 29.6579 25.6007 28.6563 25.8621 27.166L26.3317 24.4893C26.3824 24.2006 26.5599 23.9562 26.8189 23.8187L29.2195 22.545C30.5561 21.8359 31.0826 20.2154 30.4181 18.856L29.2246 16.4145ZM28.3544 20.9146L25.9538 22.1883C25.1885 22.5945 24.6635 23.3168 24.5138 24.1703L24.0443 26.8471C23.9559 27.3513 23.4897 27.69 22.9827 27.6184L20.2919 27.2378C19.4338 27.1162 18.5847 27.3924 17.9619 27.9949L16.0086 29.8843C15.6408 30.2401 15.0643 30.2401 14.6963 29.8843L12.7432 27.9948C12.2168 27.4856 11.5287 27.2097 10.8103 27.2097C10.6787 27.2097 10.546 27.2189 10.4131 27.2377L7.72235 27.6184C7.21573 27.69 6.74917 27.3512 6.66067 26.847L6.19112 24.1702C6.04137 23.3167 5.5165 22.5943 4.75107 22.1882L2.35047 20.9145C1.89823 20.6746 1.72011 20.1264 1.94492 19.6665L3.1384 17.2249C3.5189 16.4464 3.5189 15.5536 3.1384 14.7751L1.94492 12.3335C1.72011 11.8736 1.89823 11.3254 2.35047 11.0855L4.75107 9.81175C5.51644 9.40557 6.04137 8.6832 6.19105 7.82971L6.66055 5.153C6.74905 4.64875 7.21517 4.31001 7.72222 4.38163L10.413 4.76225C11.2708 4.88369 12.1202 4.60763 12.743 4.0052L14.6963 2.11572C15.0641 1.75985 15.6406 1.75985 16.0086 2.11572L17.9617 4.0052C18.5845 4.60769 19.4338 4.88369 20.2918 4.76225L22.9825 4.38163C23.4892 4.30994 23.9558 4.64875 24.0442 5.153L24.5137 7.82978C24.6635 8.68327 25.1883 9.4057 25.9538 9.81175L28.3544 11.0855C28.8066 11.3254 28.9847 11.8736 28.7599 12.3335L27.5664 14.775C27.1859 15.5534 27.1859 16.4464 27.5664 17.2249L28.7599 19.6663C28.9848 20.1264 28.8067 20.6746 28.3544 20.9146Z" fill="#D3DBE2"/>
</svg>
