<svg width="196" height="126" viewBox="0 0 196 126" fill="none" xmlns="http://www.w3.org/2000/svg">
<path d="M3.8 116C3.50667 116 3.26667 115.907 3.08 115.72C2.89333 115.507 2.8 115.267 2.8 115V89C2.8 88.7067 2.89333 88.4667 3.08 88.28C3.26667 88.0933 3.50667 88 3.8 88H22.2C22.4933 88 22.7333 88.0933 22.92 88.28C23.1067 88.4667 23.2 88.7067 23.2 89V93.04C23.2 93.3333 23.1067 93.5733 22.92 93.76C22.7333 93.9467 22.4933 94.04 22.2 94.04H9.84V99.92H21.4C21.6933 99.92 21.9333 100.027 22.12 100.24C22.3067 100.427 22.4 100.667 22.4 100.96V104.96C22.4 105.227 22.3067 105.467 22.12 105.68C21.9333 105.867 21.6933 105.96 21.4 105.96H9.84V115C9.84 115.267 9.74667 115.507 9.56 115.72C9.37333 115.907 9.13333 116 8.84 116H3.8ZM28.9459 116C28.6526 116 28.4126 115.907 28.2259 115.72C28.0393 115.507 27.9459 115.267 27.9459 115V96.2C27.9459 95.9067 28.0393 95.6667 28.2259 95.48C28.4126 95.2933 28.6526 95.2 28.9459 95.2H33.6659C33.9593 95.2 34.1993 95.2933 34.3859 95.48C34.5726 95.6667 34.6659 95.9067 34.6659 96.2V115C34.6659 115.267 34.5726 115.507 34.3859 115.72C34.1993 115.907 33.9593 116 33.6659 116H28.9459ZM28.9059 92.2C28.6126 92.2 28.3726 92.1067 28.1859 91.92C27.9993 91.7333 27.9059 91.4933 27.9059 91.2V87.6C27.9059 87.3333 27.9993 87.1067 28.1859 86.92C28.3726 86.7067 28.6126 86.6 28.9059 86.6H33.7059C33.9726 86.6 34.1993 86.7067 34.3859 86.92C34.5993 87.1067 34.7059 87.3333 34.7059 87.6V91.2C34.7059 91.4933 34.5993 91.7333 34.3859 91.92C34.1993 92.1067 33.9726 92.2 33.7059 92.2H28.9059ZM40.3913 116C40.0979 116 39.8579 115.907 39.6712 115.72C39.4846 115.507 39.3913 115.267 39.3913 115V96.2C39.3913 95.9067 39.4846 95.6667 39.6712 95.48C39.8579 95.2933 40.0979 95.2 40.3913 95.2H44.9913C45.2846 95.2 45.5246 95.2933 45.7113 95.48C45.9246 95.6667 46.0313 95.9067 46.0313 96.2V97.72C46.6979 96.8933 47.5913 96.2 48.7113 95.64C49.8313 95.08 51.1513 94.8 52.6713 94.8C54.2179 94.8 55.5779 95.1467 56.7513 95.84C57.9513 96.5333 58.8846 97.5467 59.5513 98.88C60.2446 100.213 60.5913 101.867 60.5913 103.84V115C60.5913 115.267 60.4979 115.507 60.3113 115.72C60.1246 115.907 59.8846 116 59.5913 116H54.5513C54.2846 116 54.0446 115.907 53.8313 115.72C53.6446 115.507 53.5513 115.267 53.5513 115V104.08C53.5513 102.827 53.2446 101.867 52.6313 101.2C52.0446 100.507 51.1646 100.16 49.9913 100.16C48.8979 100.16 48.0179 100.507 47.3513 101.2C46.7113 101.867 46.3913 102.827 46.3913 104.08V115C46.3913 115.267 46.2846 115.507 46.0713 115.72C45.8846 115.907 45.6579 116 45.3913 116H40.3913ZM72.8544 116.4C71.5744 116.4 70.4144 116.2 69.3744 115.8C68.361 115.373 67.481 114.76 66.7344 113.96C66.0144 113.133 65.4544 112.147 65.0544 111C64.6544 109.827 64.4277 108.493 64.3744 107C64.3477 106.467 64.3344 106 64.3344 105.6C64.3344 105.173 64.3477 104.693 64.3744 104.16C64.4277 102.747 64.6544 101.467 65.0544 100.32C65.4544 99.1467 66.0144 98.16 66.7344 97.36C67.4544 96.5333 68.3344 95.9067 69.3744 95.48C70.4144 95.0267 71.5744 94.8 72.8544 94.8C74.1877 94.8 75.3344 95.0267 76.2944 95.48C77.2544 95.9067 78.0677 96.4667 78.7344 97.16V88.6C78.7344 88.3067 78.8277 88.0667 79.0144 87.88C79.201 87.6933 79.441 87.6 79.7344 87.6H84.6144C84.881 87.6 85.1077 87.6933 85.2944 87.88C85.5077 88.0667 85.6144 88.3067 85.6144 88.6V115C85.6144 115.267 85.5077 115.507 85.2944 115.72C85.1077 115.907 84.881 116 84.6144 116H80.0944C79.801 116 79.561 115.907 79.3744 115.72C79.1877 115.507 79.0944 115.267 79.0944 115V113.72C78.4544 114.493 77.6277 115.133 76.6144 115.64C75.601 116.147 74.3477 116.4 72.8544 116.4ZM75.0544 111.04C75.9344 111.04 76.6277 110.853 77.1344 110.48C77.6677 110.08 78.0544 109.573 78.2944 108.96C78.561 108.347 78.7077 107.68 78.7344 106.96C78.761 106.427 78.7744 105.92 78.7744 105.44C78.7744 104.96 78.761 104.467 78.7344 103.96C78.7077 103.293 78.561 102.68 78.2944 102.12C78.0277 101.533 77.6277 101.067 77.0944 100.72C76.561 100.347 75.881 100.16 75.0544 100.16C74.1744 100.16 73.4677 100.347 72.9344 100.72C72.4277 101.093 72.0544 101.6 71.8144 102.24C71.601 102.88 71.4677 103.587 71.4144 104.36C71.3344 105.187 71.3344 106.013 71.4144 106.84C71.4677 107.613 71.601 108.32 71.8144 108.96C72.0544 109.6 72.4277 110.107 72.9344 110.48C73.4677 110.853 74.1744 111.04 75.0544 111.04Z" fill="#143656"/>
<path d="M92.6088 116C92.3421 116 92.1288 115.92 91.9688 115.76C91.8088 115.6 91.7288 115.387 91.7288 115.12V88.92C91.7288 88.6267 91.8088 88.4 91.9688 88.24C92.1288 88.08 92.3421 88 92.6088 88H93.3288C93.6221 88 93.8488 88.08 94.0088 88.24C94.1688 88.4 94.2488 88.6267 94.2488 88.92V100.6H109.689V88.92C109.689 88.6267 109.769 88.4 109.929 88.24C110.089 88.08 110.302 88 110.569 88H111.289C111.582 88 111.809 88.08 111.969 88.24C112.129 88.4 112.209 88.6267 112.209 88.92V115.12C112.209 115.387 112.129 115.6 111.969 115.76C111.809 115.92 111.582 116 111.289 116H110.569C110.302 116 110.089 115.92 109.929 115.76C109.769 115.6 109.689 115.387 109.689 115.12V103H94.2488V115.12C94.2488 115.387 94.1688 115.6 94.0088 115.76C93.8488 115.92 93.6221 116 93.3288 116H92.6088ZM127.137 116.4C125.217 116.4 123.603 116 122.297 115.2C121.017 114.4 120.03 113.307 119.337 111.92C118.67 110.533 118.31 108.987 118.257 107.28C118.23 106.88 118.217 106.32 118.217 105.6C118.217 104.88 118.23 104.32 118.257 103.92C118.31 102.187 118.67 100.64 119.337 99.28C120.03 97.8933 121.017 96.8 122.297 96C123.603 95.2 125.217 94.8 127.137 94.8C129.057 94.8 130.657 95.2 131.937 96C133.243 96.8 134.23 97.8933 134.897 99.28C135.59 100.64 135.963 102.187 136.017 103.92C136.043 104.32 136.057 104.88 136.057 105.6C136.057 106.32 136.043 106.88 136.017 107.28C135.963 108.987 135.59 110.533 134.897 111.92C134.23 113.307 133.243 114.4 131.937 115.2C130.657 116 129.057 116.4 127.137 116.4ZM127.137 114.08C129.003 114.08 130.523 113.48 131.697 112.28C132.87 111.08 133.497 109.347 133.577 107.08C133.603 106.68 133.617 106.187 133.617 105.6C133.617 105.013 133.603 104.52 133.577 104.12C133.497 101.827 132.87 100.093 131.697 98.92C130.523 97.72 129.003 97.12 127.137 97.12C125.27 97.12 123.75 97.72 122.577 98.92C121.403 100.093 120.777 101.827 120.697 104.12C120.67 104.52 120.657 105.013 120.657 105.6C120.657 106.187 120.67 106.68 120.697 107.08C120.777 109.347 121.403 111.08 122.577 112.28C123.75 113.48 125.27 114.08 127.137 114.08ZM142.401 116C142.135 116 141.921 115.92 141.761 115.76C141.601 115.6 141.521 115.387 141.521 115.12V96.08C141.521 95.8133 141.601 95.6 141.761 95.44C141.921 95.28 142.135 95.2 142.401 95.2H143.081C143.348 95.2 143.561 95.28 143.721 95.44C143.881 95.6 143.961 95.8133 143.961 96.08V97.48C144.628 96.6267 145.415 95.9733 146.321 95.52C147.255 95.04 148.375 94.8 149.681 94.8C152.668 94.8 154.801 96.0533 156.081 98.56C156.695 97.4133 157.588 96.5067 158.761 95.84C159.961 95.1467 161.335 94.8 162.881 94.8C164.295 94.8 165.561 95.1333 166.681 95.8C167.828 96.44 168.721 97.4 169.361 98.68C170.028 99.96 170.361 101.56 170.361 103.48V115.12C170.361 115.387 170.281 115.6 170.121 115.76C169.961 115.92 169.748 116 169.481 116H168.801C168.535 116 168.321 115.92 168.161 115.76C168.001 115.6 167.921 115.387 167.921 115.12V103.88C167.921 102.12 167.668 100.76 167.161 99.8C166.655 98.8133 165.988 98.12 165.161 97.72C164.335 97.32 163.441 97.12 162.481 97.12C161.681 97.12 160.868 97.32 160.041 97.72C159.215 98.12 158.521 98.8133 157.961 99.8C157.428 100.76 157.161 102.12 157.161 103.88V115.12C157.161 115.387 157.081 115.6 156.921 115.76C156.761 115.92 156.548 116 156.281 116H155.601C155.335 116 155.121 115.92 154.961 115.76C154.801 115.6 154.721 115.387 154.721 115.12V103.88C154.721 102.12 154.455 100.76 153.921 99.8C153.388 98.8133 152.708 98.12 151.881 97.72C151.055 97.32 150.188 97.12 149.281 97.12C148.481 97.12 147.668 97.32 146.841 97.72C146.015 98.12 145.321 98.8133 144.761 99.8C144.228 100.76 143.961 102.107 143.961 103.84V115.12C143.961 115.387 143.881 115.6 143.721 115.76C143.561 115.92 143.348 116 143.081 116H142.401ZM184.358 116.4C181.772 116.4 179.718 115.56 178.198 113.88C176.678 112.173 175.812 109.947 175.598 107.2C175.572 106.8 175.558 106.267 175.558 105.6C175.558 104.933 175.572 104.4 175.598 104C175.732 102.187 176.158 100.587 176.878 99.2C177.598 97.8133 178.585 96.7333 179.838 95.96C181.118 95.1867 182.625 94.8 184.358 94.8C186.225 94.8 187.812 95.2133 189.118 96.04C190.425 96.8667 191.425 98.0533 192.118 99.6C192.838 101.147 193.198 102.987 193.198 105.12V105.72C193.198 105.987 193.105 106.2 192.918 106.36C192.758 106.52 192.545 106.6 192.278 106.6H178.038C178.038 106.6 178.038 106.653 178.038 106.76C178.038 106.867 178.038 106.947 178.038 107C178.092 108.2 178.372 109.347 178.878 110.44C179.385 111.507 180.105 112.387 181.038 113.08C181.972 113.747 183.078 114.08 184.358 114.08C185.505 114.08 186.452 113.907 187.198 113.56C187.972 113.213 188.585 112.84 189.038 112.44C189.492 112.013 189.785 111.693 189.918 111.48C190.158 111.133 190.345 110.933 190.478 110.88C190.612 110.8 190.825 110.76 191.118 110.76H191.758C191.998 110.76 192.198 110.84 192.358 111C192.545 111.133 192.625 111.32 192.598 111.56C192.572 111.933 192.358 112.4 191.958 112.96C191.585 113.493 191.038 114.027 190.318 114.56C189.625 115.093 188.772 115.533 187.758 115.88C186.745 116.227 185.612 116.4 184.358 116.4ZM178.038 104.36H190.758V104.2C190.758 102.867 190.505 101.667 189.998 100.6C189.492 99.5333 188.758 98.6933 187.798 98.08C186.838 97.44 185.692 97.12 184.358 97.12C183.025 97.12 181.878 97.44 180.918 98.08C179.985 98.6933 179.265 99.5333 178.758 100.6C178.278 101.667 178.038 102.867 178.038 104.2V104.36Z" fill="white"/>
<g clip-path="url(#clip0)">
<path d="M133.109 67.8079L125.383 60.082C126.977 57.6761 127.917 54.8017 127.917 51.7083C127.917 43.3225 121.094 36.5 112.708 36.5C104.322 36.5 97.5 43.3225 97.5 51.7083C97.5 60.0942 104.322 66.9167 112.708 66.9167C115.802 66.9167 118.676 65.9768 121.082 64.383L128.808 72.1088C129.997 73.2981 131.92 73.2981 133.109 72.1088C134.298 70.9195 134.298 68.9972 133.109 67.8079ZM112.708 60.8333C107.677 60.8333 103.583 56.7393 103.583 51.7083C103.583 46.6774 107.677 42.5833 112.708 42.5833C117.739 42.5833 121.833 46.6774 121.833 51.7083C121.833 56.7393 117.739 60.8333 112.708 60.8333Z" fill="#143656"/>
<path d="M123.503 28.6768L112.708 18.1222V6.08333C112.708 4.40433 111.349 3.04167 109.667 3.04167C107.985 3.04167 106.625 4.40433 106.625 6.08333V12.1727L95.0636 0.866875C93.8804 -0.288958 91.9915 -0.288958 90.8114 0.866875L62.3718 28.6768C61.4867 29.5407 61 30.6995 61 31.9375C61 34.453 63.047 36.5 65.5625 36.5H70.125V53.2292C70.125 57.4206 73.5347 60.8333 77.7292 60.8333H88.375C90.057 60.8333 91.4167 59.4707 91.4167 57.7917C91.4167 56.1127 90.057 54.75 88.375 54.75H77.7292C76.8927 54.75 76.2083 54.0687 76.2083 53.2292V33.4583C76.2083 31.7793 74.8487 30.4167 73.1667 30.4167H69.2946L92.9375 7.29392L119.248 33.0234C120.452 34.2035 122.381 34.1762 123.549 32.9747C124.726 31.7763 124.702 29.8509 123.503 28.6768Z" fill="white"/>
</g>
<defs>
<clipPath id="clip0">
<rect width="73" height="73" fill="white" transform="translate(61)"/>
</clipPath>
</defs>
</svg>
