<svg width="26" height="26" viewBox="0 0 26 26" fill="none" xmlns="http://www.w3.org/2000/svg">
<path d="M25.6714 24.0868L22.8249 21.2403C23.4121 20.3538 23.7584 19.2948 23.7584 18.1551C23.7584 15.0654 21.2448 12.5518 18.1551 12.5518C15.0654 12.5518 12.5518 15.0654 12.5518 18.1551C12.5518 21.2448 15.0654 23.7584 18.1551 23.7584C19.2948 23.7584 20.3538 23.4121 21.2403 22.8249L24.0868 25.6714C24.525 26.1096 25.2332 26.1096 25.6714 25.6714C26.1096 25.2332 26.1096 24.525 25.6714 24.0868ZM18.1551 21.5171C16.3015 21.5171 14.7931 20.0087 14.7931 18.1551C14.7931 16.3015 16.3015 14.7931 18.1551 14.7931C20.0087 14.7931 21.5171 16.3015 21.5171 18.1551C21.5171 20.0087 20.0087 21.5171 18.1551 21.5171Z" fill="#46D0D9"/>
<path d="M22.0908 10.1432L18.2755 6.40999V2.15172C18.2755 1.55785 17.795 1.07586 17.2005 1.07586C16.606 1.07586 16.1255 1.55785 16.1255 2.15172V4.3056L12.0393 0.306621C11.6211 -0.102207 10.9535 -0.102207 10.5364 0.306621L0.484839 10.1432C0.172005 10.4488 0 10.8587 0 11.2966C0 12.1863 0.723496 12.9103 1.61255 12.9103H3.22509V18.8276C3.22509 20.3101 4.4302 21.5172 5.91267 21.5172H9.67528C10.2698 21.5172 10.7503 21.0353 10.7503 20.4414C10.7503 19.8475 10.2698 19.3655 9.67528 19.3655H5.91267C5.61704 19.3655 5.37516 19.1245 5.37516 18.8276V11.8345C5.37516 11.2406 4.89462 10.7586 4.30012 10.7586H2.93161L11.2878 2.57992L20.5868 11.6806C21.0126 12.0981 21.6941 12.0884 22.1069 11.6634C22.523 11.2395 22.5144 10.5585 22.0908 10.1432Z" fill="#46D0D9"/>
</svg>
