<svg width="41" height="36" viewBox="0 0 41 36" fill="none" xmlns="http://www.w3.org/2000/svg">
<path d="M7.13046 36H33.8695C34.8539 36 35.6521 35.1941 35.6521 34.2V17.285L38.0574 19.3669C38.8079 20.0165 39.9329 19.9231 40.5709 19.1714C41.2116 18.4167 41.1249 17.2803 40.3773 16.6332L21.6601 0.433351C20.9927 -0.14445 20.0075 -0.14445 19.3399 0.433351L0.6227 16.6332C-0.124925 17.2801 -0.21156 18.4165 0.429109 19.1714C1.0696 19.9263 2.19514 20.0136 2.94258 19.3669L5.34785 17.285V34.2C5.34785 35.1941 6.1461 36 7.13046 36ZM8.91306 14.1992L20.5 4.1707L32.0869 14.1992V32.4H22.2826V25.2C22.2826 24.2058 21.4844 23.4 20.5 23.4C19.5156 23.4 18.7174 24.2058 18.7174 25.2V32.4H8.91306V14.1992Z" fill="white"/>
</svg>
