<svg width="14" height="12" viewBox="0 0 14 12" fill="none" xmlns="http://www.w3.org/2000/svg">
<path d="M13.3285 8.12741H12.749C12.6782 6.88339 12.237 5.68896 11.4822 4.69761C10.7273 3.70626 9.69322 2.96331 8.51283 2.56423C8.65577 2.2994 8.72751 2.002 8.72104 1.70112C8.71457 1.40025 8.63011 1.1062 8.47592 0.847758C8.32172 0.589315 8.10308 0.375325 7.84139 0.226723C7.57969 0.0781221 7.2839 0 6.98295 0C6.682 0 6.38621 0.0781221 6.12452 0.226723C5.86282 0.375325 5.64418 0.589315 5.48998 0.847758C5.33579 1.1062 5.25133 1.40025 5.24486 1.70112C5.23839 2.002 5.31013 2.2994 5.45308 2.56423C4.26727 2.95856 3.22698 3.69946 2.46666 4.69119C1.70633 5.68292 1.26091 6.87989 1.18797 8.12741H0.579498C0.425806 8.12741 0.278408 8.18847 0.169731 8.29714C0.0610542 8.40582 0 8.55322 0 8.70691C0 8.8606 0.0610542 9.008 0.169731 9.11668C0.278408 9.22536 0.425806 9.28641 0.579498 9.28641H13.3285C13.4821 9.28641 13.6295 9.22536 13.7382 9.11668C13.8469 9.008 13.908 8.8606 13.908 8.70691C13.908 8.55322 13.8469 8.40582 13.7382 8.29714C13.6295 8.18847 13.4821 8.12741 13.3285 8.12741ZM6.37448 1.75294C6.37448 1.63832 6.40846 1.52628 6.47214 1.43098C6.53582 1.33569 6.62632 1.26141 6.73221 1.21755C6.8381 1.17369 6.95462 1.16221 7.06703 1.18457C7.17944 1.20693 7.2827 1.26212 7.36374 1.34317C7.44479 1.42421 7.49998 1.52747 7.52234 1.63988C7.5447 1.75229 7.53322 1.86881 7.48936 1.9747C7.4455 2.08059 7.37123 2.17109 7.27593 2.23477C7.18063 2.29845 7.06859 2.33243 6.95398 2.33243C6.80028 2.33243 6.65289 2.27138 6.54421 2.1627C6.43553 2.05403 6.37448 1.90663 6.37448 1.75294ZM6.95398 3.49143C9.33571 3.49143 11.3002 5.52547 11.59 8.12741H2.34697C2.60774 5.52547 4.57224 3.49143 6.95398 3.49143Z" fill="#8A9BAB"/>
<path d="M12.1694 9.86584H1.73843C1.58474 9.86584 1.43734 9.9269 1.32867 10.0356C1.21999 10.1443 1.15894 10.2917 1.15894 10.4453C1.15894 10.599 1.21999 10.7464 1.32867 10.8551C1.43734 10.9638 1.58474 11.0248 1.73843 11.0248H12.1694C12.3231 11.0248 12.4705 10.9638 12.5792 10.8551C12.6878 10.7464 12.7489 10.599 12.7489 10.4453C12.7489 10.2917 12.6878 10.1443 12.5792 10.0356C12.4705 9.9269 12.3231 9.86584 12.1694 9.86584Z" fill="#8A9BAB"/>
</svg>
