<svg width="22" height="22" viewBox="0 0 22 22" fill="none" xmlns="http://www.w3.org/2000/svg">
<path d="M21.8817 21.3106L16.5418 15.9707C18.1021 14.2733 19.0563 12.0104 19.0563 9.52856C19.0563 4.27442 14.7822 0 9.52847 0C4.27451 0 0 4.27442 0 9.52848C0 14.7822 4.27442 19.0564 9.52838 19.0564C12.0103 19.0564 14.2732 18.1022 15.9705 16.5419L21.3104 21.8817C21.3892 21.9605 21.4926 22 21.596 22C21.6993 22 21.8027 21.9605 21.8816 21.8817C22.0395 21.7239 22.0395 21.4683 21.8817 21.3106ZM0.807779 9.52848C0.807779 4.71986 4.71986 0.807779 9.52847 0.807779C14.3367 0.807779 18.2486 4.71986 18.2486 9.52848C18.2486 14.3367 14.3367 18.2486 9.52847 18.2486C4.71977 18.2486 0.807779 14.3367 0.807779 9.52848Z" fill="#7192B0"/>
<path d="M9.78017 5.11904C9.62545 4.96032 9.37481 4.96032 9.2201 5.11904L5.11597 9.32908C4.96134 9.48771 4.96134 9.74492 5.11597 9.90355C5.19337 9.98287 5.29458 10.0226 5.39596 10.0226C5.49726 10.0226 5.59864 9.98287 5.67595 9.90364L6.20183 9.36416V12.5937C6.20183 12.8181 6.37905 13 6.59775 13H12.4017C12.6204 13 12.7977 12.8181 12.7977 12.5937V9.36363L13.324 9.90355C13.4787 10.0622 13.7293 10.0622 13.884 9.90355C14.0387 9.74492 14.0387 9.48771 13.884 9.32908L9.78017 5.11904ZM12.0059 12.1875H6.99375V8.55175L9.50009 5.98066L12.0058 8.55122V12.1875H12.0059Z" fill="#7192B0"/>
</svg>
