<svg width="19" height="19" viewBox="0 0 19 19" fill="none" xmlns="http://www.w3.org/2000/svg">
<g clip-path="url(#clip0)">
<path d="M8.9038 19H10.0962C11.0607 19 11.8453 18.2154 11.8453 17.2509V16.8475C12.2554 16.7165 12.6537 16.5512 13.0364 16.3531L13.3223 16.639C14.0148 17.3323 15.1239 17.3119 15.7962 16.6387L16.639 15.796C17.3125 15.1232 17.3319 14.0144 16.6388 13.3221L16.3531 13.0364C16.5512 12.6537 16.7165 12.2554 16.8475 11.8453H17.2509C18.2153 11.8453 19 11.0607 19 10.0962V8.90376C19 7.93933 18.2153 7.15469 17.2509 7.15469H16.8475C16.7165 6.74463 16.5512 6.3463 16.3531 5.96359L16.639 5.67773C17.3317 4.98579 17.3126 3.87689 16.6388 3.20384L15.7959 2.36101C15.122 1.68621 14.0131 1.66937 13.322 2.36123L13.0364 2.64686C12.6537 2.44885 12.2553 2.28349 11.8453 2.15246V1.74908C11.8453 0.784641 11.0607 0 10.0962 0H8.90376C7.93933 0 7.15469 0.784641 7.15469 1.74908V2.15249C6.74467 2.28349 6.3463 2.44885 5.96359 2.6469L5.6777 2.36101C4.98527 1.66773 3.87611 1.68807 3.2038 2.36127L2.36101 3.20402C1.68751 3.87678 1.66814 4.98557 2.36123 5.67792L2.6469 5.96359C2.44885 6.3463 2.28353 6.74459 2.15249 7.15469H1.74911C0.784678 7.15469 0 7.93933 0 8.90376V10.0962C0 11.0607 0.784678 11.8453 1.74911 11.8453H2.15249C2.28353 12.2554 2.44885 12.6537 2.6469 13.0364L2.36101 13.3223C1.66833 14.0142 1.68744 15.1231 2.36123 15.7962L3.2041 16.639C3.87797 17.3138 4.98687 17.3307 5.67796 16.6388L5.96359 16.3532C6.3463 16.5512 6.74467 16.7165 7.15469 16.8476V17.251C7.15469 18.2154 7.93933 19 8.9038 19ZM12.8503 15.184C12.3187 15.4985 11.7465 15.736 11.1496 15.89C10.9038 15.9535 10.732 16.1752 10.732 16.429V17.2509C10.732 17.6015 10.4468 17.8867 10.0962 17.8867H8.90376C8.55319 17.8867 8.26793 17.6015 8.26793 17.2509V16.429C8.26793 16.1752 8.09619 15.9535 7.85038 15.89C7.25351 15.736 6.68128 15.4985 6.14962 15.184C5.93086 15.0547 5.65235 15.0899 5.47263 15.2696L4.89046 15.8518C4.63945 16.1031 4.23637 16.0973 3.99152 15.852L3.14814 15.0087C2.90388 14.7647 2.89572 14.3616 3.14791 14.1097L3.73035 13.5273C3.91003 13.3476 3.94521 13.0691 3.81588 12.8503C3.50146 12.3187 3.26395 11.7465 3.10991 11.1496C3.04646 10.9038 2.82477 10.7321 2.57094 10.7321H1.74908C1.3985 10.7321 1.11324 10.4468 1.11324 10.0963V8.9038C1.11324 8.55323 1.3985 8.26801 1.74908 8.26801H2.57094C2.8248 8.26801 3.04646 8.09626 3.10991 7.85049C3.26395 7.25358 3.50149 6.68136 3.81588 6.14973C3.94521 5.93101 3.91003 5.65246 3.73035 5.47278L3.14814 4.89057C2.89646 4.63919 2.90303 4.23618 3.14791 3.9916L3.99123 3.14829C4.23566 2.90351 4.63882 2.89635 4.8902 3.14806L5.47259 3.73049C5.65228 3.91021 5.93089 3.94539 6.14958 3.81603C6.68125 3.5016 7.25347 3.26407 7.85034 3.11003C8.09615 3.04661 8.26789 2.82491 8.26789 2.57105V1.74908C8.26789 1.3985 8.55315 1.11328 8.90373 1.11328H10.0962C10.4467 1.11328 10.732 1.3985 10.732 1.74908V2.57097C10.732 2.82484 10.9037 3.04653 11.1495 3.10995C11.7464 3.26399 12.3186 3.50153 12.8503 3.81596C13.0691 3.94528 13.3476 3.9101 13.5273 3.73042L14.1095 3.14821C14.3605 2.89691 14.7636 2.90273 15.0084 3.14795L15.8518 3.9913C16.096 4.23526 16.1042 4.63837 15.852 4.89027L15.2696 5.47271C15.0899 5.65239 15.0547 5.93093 15.184 6.14965C15.4985 6.68128 15.736 7.25351 15.89 7.85041C15.9535 8.09623 16.1752 8.26793 16.429 8.26793H17.2509C17.6015 8.26797 17.8867 8.55319 17.8867 8.90376V10.0962C17.8867 10.4468 17.6015 10.732 17.2509 10.732H16.429C16.1752 10.732 15.9535 10.9038 15.89 11.1495C15.736 11.7465 15.4985 12.3187 15.1841 12.8503C15.0548 13.069 15.0899 13.3476 15.2696 13.5273L15.8518 14.1095C16.1035 14.3608 16.0969 14.7639 15.852 15.0084L15.0087 15.8518C14.7643 16.0965 14.3611 16.1037 14.1098 15.852L13.5274 15.2695C13.395 15.1372 13.1195 15.0248 12.8503 15.184Z" fill="#143656"/>
<path d="M9.50005 13.634C11.7796 13.634 13.634 11.7795 13.634 9.50001C13.634 7.22053 11.7796 5.36603 9.50005 5.36603C7.22053 5.36603 5.36606 7.22053 5.36606 9.50001C5.36606 11.7795 7.22053 13.634 9.50005 13.634ZM9.50005 6.47931C11.1657 6.47931 12.5208 7.83439 12.5208 9.50001C12.5208 11.1656 11.1657 12.5207 9.50005 12.5207C7.83443 12.5207 6.47935 11.1656 6.47935 9.50001C6.47935 7.83439 7.83439 6.47931 9.50005 6.47931Z" fill="#143656"/>
</g>
<defs>
<clipPath id="clip0">
<rect width="19" height="19" fill="white" transform="matrix(-1 0 0 1 19 0)"/>
</clipPath>
</defs>
</svg>
